<?xml version="1.0" encoding="UTF-8" standalone="no"?>
<!-- Generator: Adobe Illustrator 15.1.0, SVG Export Plug-In . SVG Version: 6.00 Build 0)  -->

<svg
   xmlns:dc="http://purl.org/dc/elements/1.1/"
   xmlns:cc="http://creativecommons.org/ns#"
   xmlns:rdf="http://www.w3.org/1999/02/22-rdf-syntax-ns#"
   xmlns:svg="http://www.w3.org/2000/svg"
   xmlns="http://www.w3.org/2000/svg"
   xmlns:sodipodi="http://sodipodi.sourceforge.net/DTD/sodipodi-0.dtd"
   xmlns:inkscape="http://www.inkscape.org/namespaces/inkscape"
   version="1.1"
   id="InteractiveSVG"
   x="0px"
   y="0px"
   width="1024px"
   height="1388px"
   viewBox="0 0 1024 1388"
   enable-background="new 0 0 1024 1388"
   xml:space="preserve"
   inkscape:version="0.4 r12068"
   sodipodi:docname="interactive.svg"><metadata
   id="metadata373"><rdf:RDF><cc:Work
       rdf:about=""><dc:format>image/svg+xml</dc:format><dc:type
         rdf:resource="http://purl.org/dc/dcmitype/StillImage" /></cc:Work></rdf:RDF></metadata><defs
   id="defs371" /><sodipodi:namedview
   pagecolor="#ffffff"
   bordercolor="#666666"
   borderopacity="1"
   objecttolerance="10"
   gridtolerance="10"
   guidetolerance="10"
   inkscape:pageopacity="0"
   inkscape:pageshadow="2"
   inkscape:window-width="1846"
   inkscape:window-height="1057"
   id="namedview369"
   showgrid="false"
   inkscape:zoom="0.48091412"
   inkscape:cx="744.05741"
   inkscape:cy="730.28866"
   inkscape:window-x="66"
   inkscape:window-y="-8"
   inkscape:window-maximized="1"
   inkscape:current-layer="coffee-icon" />
<g
   id="background"
   transform="matrix(1,0,0,1.27566,0,-382.61228)">
	<rect
   y="297.98599"
   width="1023.91"
   height="1090"
   id="rect4"
   x="0"
   style="fill:#e8efef" />
	<g
   id="g6">
		<line
   stroke-miterlimit="10"
   x1="950.36902"
   y1="1252.486"
   x2="565.45502"
   y2="1252.486"
   id="line8"
   style="fill:none;stroke:#cadbdd;stroke-miterlimit:10" />
		<line
   stroke-miterlimit="10"
   x1="950.36902"
   y1="1177.577"
   x2="565.45502"
   y2="1177.577"
   id="line10"
   style="fill:none;stroke:#cadbdd;stroke-miterlimit:10" />
		<line
   stroke-miterlimit="10"
   x1="950.36902"
   y1="1102.668"
   x2="565.45502"
   y2="1102.668"
   id="line12"
   style="fill:none;stroke:#cadbdd;stroke-miterlimit:10" />
		<line
   stroke-miterlimit="10"
   x1="950.36902"
   y1="1027.7581"
   x2="565.45502"
   y2="1027.7581"
   id="line14"
   style="fill:none;stroke:#cadbdd;stroke-miterlimit:10" />
		<line
   stroke-miterlimit="10"
   x1="950.36902"
   y1="952.84998"
   x2="565.45502"
   y2="952.84998"
   id="line16"
   style="fill:none;stroke:#cadbdd;stroke-miterlimit:10" />
		<line
   stroke-miterlimit="10"
   x1="950.36902"
   y1="877.94"
   x2="565.45502"
   y2="877.94"
   id="line18"
   style="fill:none;stroke:#cadbdd;stroke-miterlimit:10" />
		<line
   stroke-miterlimit="10"
   x1="950.36902"
   y1="803.03101"
   x2="565.45502"
   y2="803.03101"
   id="line20"
   style="fill:none;stroke:#cadbdd;stroke-miterlimit:10" />
		<line
   stroke-miterlimit="10"
   x1="950.36902"
   y1="728.12299"
   x2="565.45502"
   y2="728.12201"
   id="line22"
   style="fill:none;stroke:#cadbdd;stroke-miterlimit:10" />
		<line
   stroke-miterlimit="10"
   x1="950.36902"
   y1="653.21399"
   x2="565.45502"
   y2="653.21399"
   id="line24"
   style="fill:none;stroke:#cadbdd;stroke-miterlimit:10" />
		<line
   stroke-miterlimit="10"
   x1="950.36902"
   y1="578.30499"
   x2="565.45502"
   y2="578.30499"
   id="line26"
   style="fill:none;stroke:#cadbdd;stroke-miterlimit:10" />
		<line
   stroke-miterlimit="10"
   x1="950.36902"
   y1="503.396"
   x2="565.45502"
   y2="503.396"
   id="line28"
   style="fill:none;stroke:#cadbdd;stroke-miterlimit:10" />
		<line
   stroke-miterlimit="10"
   x1="950.36902"
   y1="428.48599"
   x2="565.45502"
   y2="428.48599"
   id="line30"
   style="fill:none;stroke:#cadbdd;stroke-miterlimit:10" />
	</g>
	<g
   id="g32">
		<line
   stroke-miterlimit="10"
   x1="458.45401"
   y1="1252.486"
   x2="89.467003"
   y2="1252.486"
   id="line34"
   style="fill:none;stroke:#cadbdd;stroke-miterlimit:10" />
		<line
   stroke-miterlimit="10"
   x1="458.45401"
   y1="1177.577"
   x2="89.467003"
   y2="1177.577"
   id="line36"
   style="fill:none;stroke:#cadbdd;stroke-miterlimit:10" />
		<line
   stroke-miterlimit="10"
   x1="458.45401"
   y1="1102.668"
   x2="89.467003"
   y2="1102.668"
   id="line38"
   style="fill:none;stroke:#cadbdd;stroke-miterlimit:10" />
		<line
   stroke-miterlimit="10"
   x1="458.45401"
   y1="1027.7581"
   x2="89.467003"
   y2="1027.7581"
   id="line40"
   style="fill:none;stroke:#cadbdd;stroke-miterlimit:10" />
		<line
   stroke-miterlimit="10"
   x1="458.45401"
   y1="952.84998"
   x2="89.467003"
   y2="952.84998"
   id="line42"
   style="fill:none;stroke:#cadbdd;stroke-miterlimit:10" />
		<line
   stroke-miterlimit="10"
   x1="458.45401"
   y1="877.94"
   x2="89.467003"
   y2="877.94"
   id="line44"
   style="fill:none;stroke:#cadbdd;stroke-miterlimit:10" />
		<line
   stroke-miterlimit="10"
   x1="458.45401"
   y1="803.03101"
   x2="89.467003"
   y2="803.03101"
   id="line46"
   style="fill:none;stroke:#cadbdd;stroke-miterlimit:10" />
		<line
   stroke-miterlimit="10"
   x1="458.45401"
   y1="728.12201"
   x2="89.467003"
   y2="728.12201"
   id="line48"
   style="fill:none;stroke:#cadbdd;stroke-miterlimit:10" />
		<line
   stroke-miterlimit="10"
   x1="458.45401"
   y1="653.21399"
   x2="89.467003"
   y2="653.21399"
   id="line50"
   style="fill:none;stroke:#cadbdd;stroke-miterlimit:10" />
		<line
   stroke-miterlimit="10"
   x1="458.45401"
   y1="578.30499"
   x2="89.467003"
   y2="578.30499"
   id="line52"
   style="fill:none;stroke:#cadbdd;stroke-miterlimit:10" />
		<line
   stroke-miterlimit="10"
   x1="458.45401"
   y1="503.396"
   x2="89.467003"
   y2="503.396"
   id="line54"
   style="fill:none;stroke:#cadbdd;stroke-miterlimit:10" />
		<line
   stroke-miterlimit="10"
   x1="458.45401"
   y1="428.48599"
   x2="89.467003"
   y2="428.48599"
   id="line56"
   style="fill:none;stroke:#cadbdd;stroke-miterlimit:10" />
	</g>
</g>


<g
   id="timeline"
   transform="translate(-29.40678,-349.94068)">
	<g
   id="coffee">
		<rect
   x="505.54501"
   y="429"
   width="17"
   height="107"
   id="rect149"
   style="fill:#5b4f35" />
		<polyline
   points="509.334,474.132 497.023,483.456 514.566,494.415   "
   id="polyline151"
   style="fill:#5b4f35" />
		<g
   id="g153">
			<text
   transform="translate(565.5449,494.2139)"
   font-size="28.2251"
   id="text155"
   style="font-size:28.22509956px;fill:#5b4f35;font-family:LeagueGothic">9AM</text>

		</g>
		<g
   id="coffee-badge">
			<circle
   cx="311.58099"
   cy="484.27301"
   r="130.5"
   id="circle158"
   d="m 442.08099,484.27301 c 0,72.07316 -58.42684,130.5 -130.5,130.5 -72.07316,0 -130.5,-58.42684 -130.5,-130.5 0,-72.07316 58.42684,-130.5 130.5,-130.5 C 383.65415,353.77301 442.08099,412.19985 442.08099,484.27301 Z"
   sodipodi:cx="311.58099"
   sodipodi:cy="484.27301"
   sodipodi:rx="130.5"
   sodipodi:ry="130.5"
   style="fill:#5b4f35" />
			<g
   id="coffee-title">
				<text
   transform="translate(284.416,403.2793)"
   font-size="28.2251"
   id="text161"
   style="font-size:28.22509956px;fill:#ffffff;font-family:LeagueGothic">Romans</text>

			</g>
			<g
   id="coffee-details">
				<g
   id="coffee-icon">
					
					
					
					
					
					
					
					
				<path
   style="fill:#dfca00;stroke:#000000;stroke-width:1px;stroke-linecap:butt;stroke-linejoin:miter;stroke-opacity:1;fill-opacity:1"
   d="M 262.45551,102.18856 C 245.54661,111.74576 248.48729,173.5 248.48729,173.5 l 69.10593,-5.88136 c -26.19777,-17.7812 -9.14409,-34.81211 -12.49788,-52.19703 6.70343,4.38753 15.90191,-2.45265 19.11441,17.64407 0.0874,-10.06062 -0.33652,-20.76034 7.35169,-21.31992 9.82893,16.66384 8.32661,33.32769 8.82204,49.99153 0,0 21.31991,-49.99153 -24.2606,-66.900428 C 270.54237,77.927964 262.45551,102.18856 262.45551,102.18856 Z"
   id="path10684"
   inkscape:connector-curvature="0"
   transform="translate(29.40678,349.94068)"
   sodipodi:nodetypes="cccccccsc" /><path
   style="fill:#df0000;stroke:#000000;stroke-width:1px;stroke-linecap:butt;stroke-linejoin:miter;stroke-opacity:1;fill-opacity:1"
   d="M 252.89831,94.101693 235.25424,75.722456 C 262.01458,58.472964 300.11682,62.357392 338.17797,66.165252 L 322.00424,86.014828 Z"
   id="path10686"
   inkscape:connector-curvature="0"
   transform="translate(29.40678,349.94068)"
   sodipodi:nodetypes="ccccc" /><path
   style="fill:#dfca00;stroke:#000000;stroke-width:1px;stroke-linecap:butt;stroke-linejoin:miter;stroke-opacity:1;fill-opacity:1"
   d="m 345.52966,445.51271 6.61652,-10.29237 c -24.01554,-7.12406 -48.03107,-1.02052 -72.04661,7.35169 l 10.29238,10.29237 C 306.09212,446.39523 322.14287,440.45195 345.52966,445.51271 Z"
   id="path10680"
   inkscape:connector-curvature="0"
   sodipodi:nodetypes="ccccc" /></g>
				<rect
   x="219.11"
   y="530.17401"
   width="187"
   height="68"
   id="rect181"
   style="fill:none" />
				<text
   transform="translate(219.7134,543.4023)"
   font-size="18"
   id="text183"
   style="font-size:18px;fill:#ceb995;font-family:LeagueGothic">Roman rule  of Britain</text>

				<text
   transform="translate(249.6372,565.0039)"
   font-size="18"
   id="text185"
   style="font-size:18px;fill:#ceb995;font-family:LeagueGothic">//TODO</text>

			</g>
		</g>
	</g>
	<g
   id="design">
		<rect
   x="505.54501"
   y="536"
   width="17"
   height="135"
   id="rect188"
   style="fill:#d1652f" />
		<polyline
   points="520.256,614.415 532.566,605.092 515.023,594.132   "
   id="polyline190"
   style="fill:#d1652f" />
		<text
   transform="translate(413.2793,616.6328)"
   font-size="28.2251"
   id="text192"
   style="font-size:28.22509956px;fill:#d1652f;font-family:LeagueGothic">10AM</text>

		<g
   id="design-badge">
			<circle
   cx="711"
   cy="604.5"
   r="130.5"
   id="circle195"
   d="M 841.5,604.5 C 841.5,676.57316 783.07316,735 711,735 638.92684,735 580.5,676.57316 580.5,604.5 580.5,532.42684 638.92684,474 711,474 783.07316,474 841.5,532.42684 841.5,604.5 Z"
   sodipodi:cx="711"
   sodipodi:cy="604.5"
   sodipodi:rx="130.5"
   sodipodi:ry="130.5"
   style="fill:#d1652f" />
			<g
   id="design-title">
				<text
   transform="translate(682.4639,523.5059)"
   font-size="28.2251"
   id="text198"
   style="font-size:28.22509956px;fill:#ffffff;font-family:LeagueGothic">DESIGN</text>

			</g>
			<g
   id="design-details">
				<rect
   x="616.46802"
   y="650.40002"
   width="187"
   height="68"
   id="rect201"
   style="fill:none" />
				<text
   transform="translate(630.1738,663.6289)"
   font-size="18"
   id="text203"
   style="font-size:18px;fill:#e8ad67;font-family:LeagueGothic">WORLDWIDE, A NEW WEB PAGE IS </text>

				<text
   transform="translate(637.2568,685.2305)"
   font-size="18"
   id="text205"
   style="font-size:18px;fill:#e8ad67;font-family:LeagueGothic">DESIGNED EVERY 0.4 SECONDS</text>

				<g
   id="g207">
					<ellipse
   cx="702.66699"
   cy="626.35699"
   rx="28.333"
   ry="3.108"
   id="ellipse209"
   d="m 730.99999,626.35699 c 0,1.71651 -12.68511,3.108 -28.333,3.108 -15.64788,0 -28.333,-1.39149 -28.333,-3.108 0,-1.7165 12.68512,-3.108 28.333,-3.108 C 718.31488,623.24899 730.99999,624.64049 730.99999,626.35699 Z"
   sodipodi:cx="702.66699"
   sodipodi:cy="626.35699"
   sodipodi:rx="28.333"
   sodipodi:ry="3.108"
   style="fill:#b24e2b" />
					<path
   d="m 747.848,571.088 c -1.031,-1.348 -2.066,-2.696 -3.104,-4.044 -0.12,-0.09 -0.126,-0.073 -0.021,0.049 -6.992,-6.938 -16.916,-17.188 -26.563,-20.604 -6.818,0.049 -34.996,29.881 -34.142,30.987 3.136,4.072 7.953,7.688 11.637,11.258 6.826,6.612 14.438,18.08 22.894,22.438 1.931,0.993 13.041,-11.333 14.405,-12.698 7.224,-7.218 23.181,-17.04 14.894,-27.386 C 746.795,569.753 748.896,572.398 747.848,571.088 Z"
   id="path211"
   inkscape:connector-curvature="0"
   style="fill:#e8ad67" />
					<path
   d="m 747.744,565.267 c -0.063,-0.094 -0.163,-0.25 -0.324,-0.492 C 747.55,564.969 747.67,565.153 747.744,565.267 Z"
   id="path213"
   inkscape:connector-curvature="0"
   style="fill:#e8ad67" />
					<path
   d="m 674.914,620.213 c 0.208,0.291 0.407,0.587 0.604,0.885 0.246,0.143 0.49,0.287 0.734,0.438 0.109,0.005 0.215,0.02 0.324,0.021 l 42.611,-9.315 -35.033,-35.034 -9.229,42.196 C 674.922,619.673 674.912,619.943 674.914,620.213 Z"
   id="path215"
   inkscape:connector-curvature="0"
   style="fill:#ffcba6" />
					<path
   d="m 744.743,567.044 c -5.46,-5.326 -9.369,-9.872 -15.87,-14.435 -10.965,11.813 -23.418,23.102 -34.816,34.499 2.159,2.154 12.971,15.569 15.816,14.505 3.752,-1.406 6.417,-6.339 9.303,-9.068 2.734,-2.588 26.763,-23.911 25.567,-25.501 C 744.712,567.025 744.813,567.135 744.743,567.044 Z"
   id="path217"
   inkscape:connector-curvature="0"
   style="fill:#ff9740" />
					<path
   d="m 747.848,571.088 c -1.156,-1.463 -2.191,-3.245 -3.193,-4.101 0.431,0.597 -21.375,21.366 -23.58,23.567 -1.896,1.896 -12.609,10.944 -10.925,12.646 2.837,2.854 5.636,6.324 8.563,9.084 1.121,1.056 9.459,-8.576 10.964,-10.082 5.245,-5.244 9.55,-9.049 14.794,-14.293 6.664,-6.663 9.262,-9.469 3.377,-16.821 C 746.795,569.753 749.34,572.971 747.848,571.088 Z"
   id="path219"
   inkscape:connector-curvature="0"
   style="fill:#fa871c" />
					<path
   d="m 694.057,587.108 c 0,0 0.004,-9.531 -9.896,-9.901 l 0.313,4.566 L 694.057,587.108 Z"
   id="path221"
   inkscape:connector-curvature="0"
   style="fill:#ffcba6" />
					<path
   d="m 718.831,611.882 c 0,0 0.003,-9.531 -9.901,-9.897 l 0.313,4.563 L 718.831,611.882 Z"
   id="path223"
   inkscape:connector-curvature="0"
   style="fill:#ffcba6" />
					<path
   d="m 709.29,602.341 c 0,0 0.005,-14.862 -15.44,-15.438 l 0.489,7.119 L 709.29,602.341 Z"
   id="path225"
   inkscape:connector-curvature="0"
   style="fill:#ffcba6" />
					<path
   d="m 674.938,618.93 c -0.016,0.432 -0.021,0.855 -0.021,1.283 0.208,0.291 0.407,0.587 0.604,0.885 0.244,0.143 0.488,0.287 0.732,0.438 0.218,0.009 0.426,0.037 0.646,0.051 l 7.57,-1.656 -0.045,-0.045 c 0,-0.026 -0.006,-7.65 -7.94,-7.957 l 0,0.017 -0.016,-0.017 L 674.938,618.93 Z"
   id="path227"
   inkscape:connector-curvature="0"
   style="fill:#3a2f19" />
				</g>
			</g>
		</g>
	</g>
	<g
   id="complain">
		<rect
   x="505.54501"
   y="860"
   width="17"
   height="283"
   id="rect230"
   style="fill:#6dbacc" />
		<polyline
   points="520.256,1010.415 532.566,1001.092 515.023,990.133   "
   id="polyline232"
   style="fill:#6dbacc" />
		<text
   transform="translate(407.2793,1007.6328)"
   font-size="28.2251"
   id="text234"
   style="font-size:28.22509956px;fill:#6dbacc;font-family:LeagueGothic">12PM</text>

		<g
   id="complain-badge">
			<circle
   cx="717"
   cy="1000.5"
   r="130.5"
   id="circle237"
   d="m 847.5,1000.5 c 0,72.0732 -58.42684,130.5 -130.5,130.5 -72.07316,0 -130.5,-58.4268 -130.5,-130.5 C 586.5,928.42684 644.92684,870 717,870 789.07316,870 847.5,928.42684 847.5,1000.5 Z"
   sodipodi:cx="717"
   sodipodi:cy="1000.5"
   sodipodi:rx="130.5"
   sodipodi:ry="130.5"
   style="fill:#6dbacc" />
			<g
   id="complain-title">
				<text
   transform="translate(680.0996,916.1816)"
   font-size="24.3935"
   id="text240"
   style="font-size:24.39349937px;fill:#ffffff;font-family:LeagueGothic">COMPLAIN</text>

				<text
   transform="translate(684.5508,940.2686)"
   font-size="24.3935"
   id="text242"
   style="font-size:24.39349937px;fill:#ffffff;font-family:LeagueGothic">ABOUT IE</text>

			</g>
			<g
   id="complain-details">
				<rect
   x="622.89203"
   y="1046.4"
   width="187"
   height="68"
   id="rect245"
   style="fill:none" />
				<text
   transform="translate(637.332,1059.6289)"
   font-size="18"
   id="text247"
   style="font-size:18px;fill:#b9e4ea;font-family:LeagueGothic">BROWSER QUIRKS CAN INCREASE </text>

				<text
   transform="translate(646.9707,1081.2305)"
   font-size="18"
   id="text249"
   style="font-size:18px;fill:#b9e4ea;font-family:LeagueGothic">PRODUCTION TIME UP TO 71%</text>

				<g
   id="g251">
					<path
   d="m 743.486,1005.52 c -4.162,-0.01 -12.915,-0.396 -16.066,-0.526 -3.182,-0.132 -4.639,5.476 -11.518,5.478 -17.875,0.01 -16.861,-11.994 -11.955,-11.994 3.914,0 28.607,0 40.521,-0.199 4.507,-1.771 3.23,-14.997 -5.068,-24.89 -8.82,-10.506 -18.236,-10.804 -18.236,-10.804 7.334,-5.055 18.039,-5.946 21.012,-4.561 2.978,1.39 3.646,0.299 3.646,0.299 -8.25,-10.704 -30.804,3.068 -30.804,3.068 -30.229,2.577 -33.005,29.438 -33.005,29.438 2.68,-3.271 7.83,-6.046 9.416,-7.533 1.586,-1.487 1.586,0 1.586,0 -33.006,43.709 1.094,44.604 -2.771,42.421 -3.865,-2.181 -2.678,-13.578 -2.678,-13.578 1.092,1.288 9.813,15.267 28.741,14.569 18.935,-0.693 26.813,-16.422 27.807,-19.099 C 744.445,1006.699 744.143,1006.021 743.486,1005.52 z m -37.809,-26.796 c 6.381,-3.635 18.079,-2.974 21.624,2.812 3.545,5.786 -0.354,6.604 -1.949,7.27 -1.596,0.661 -19.675,0 -19.675,0 C 700.005,988.801 699.297,982.358 705.677,978.724 Z"
   id="path253"
   inkscape:connector-curvature="0"
   style="fill:#004f84" />
					<path
   enable-background="new    "
   d="m 736.968,978.469 c -1.242,0.969 -5.843,-2.894 -12.034,-5.953 -6.126,-3.184 -11.961,-4.606 -11.914,-6.185 -0.05,-1.521 7.019,-2.601 14.447,1.188 C 734.916,971.273 738.221,977.61 736.968,978.469 Z"
   id="path255"
   inkscape:connector-curvature="0"
   style="opacity:0.56000001;fill:#0097c0" />
					<path
   enable-background="new    "
   d="m 698.653,1009.835 c 5.729,4.177 17.164,7.82 10.646,8.689 -6.518,0.87 -17.164,-6.082 -15.856,-9.993 C 694.743,1004.62 696.565,1008.313 698.653,1009.835 Z"
   id="path257"
   inkscape:connector-curvature="0"
   style="opacity:0.56000001;fill:#0097c0" />
					<ellipse
   cx="713.66699"
   cy="1032.3571"
   rx="19.667"
   ry="2.0239999"
   id="ellipse259"
   d="m 733.33399,1032.3571 c 0,1.1178 -8.80521,2.024 -19.667,2.024 -10.86178,0 -19.667,-0.9062 -19.667,-2.024 0,-1.1179 8.80522,-2.024 19.667,-2.024 C 724.52878,1030.3331 733.33399,1031.2392 733.33399,1032.3571 Z"
   sodipodi:cx="713.66699"
   sodipodi:cy="1032.3571"
   sodipodi:rx="19.667"
   sodipodi:ry="2.0239999"
   style="fill:#448faa" />
				</g>
			</g>
		</g>
	</g>
	<g
   id="build">
		<rect
   x="505.54501"
   y="671"
   width="17"
   height="189"
   id="rect262"
   style="fill:#b1c482" />
		<polyline
   points="509.334,761.133 497.023,770.455 514.566,781.415   "
   id="polyline264"
   style="fill:#b1c482" />
		<text
   transform="translate(558.6953,780.7109)"
   font-size="28.2251"
   id="text266"
   style="font-size:28.22509956px;fill:#b1c482;font-family:LeagueGothic">11AM</text>

		<g
   id="build-badge">
			<circle
   cx="311"
   cy="772.5"
   r="130.5"
   id="circle269"
   d="M 441.5,772.5 C 441.5,844.57316 383.07316,903 311,903 238.92684,903 180.5,844.57316 180.5,772.5 180.5,700.42684 238.92684,642 311,642 383.07316,642 441.5,700.42684 441.5,772.5 Z"
   sodipodi:cx="311"
   sodipodi:cy="772.5"
   sodipodi:rx="130.5"
   sodipodi:ry="130.5"
   style="fill:#b1c482" />
			<g
   id="build-title">
				<text
   transform="translate(287.0991,691.5059)"
   font-size="28.2251"
   id="text272"
   style="font-size:28.22509956px;fill:#ffffff;font-family:LeagueGothic">BUILD</text>

			</g>
			<g
   id="build-details">
				<rect
   x="215.89301"
   y="818.40002"
   width="187"
   height="68"
   id="rect275"
   style="fill:none" />
				<text
   transform="translate(226.1045,831.6289)"
   font-size="18"
   id="text277"
   style="font-size:18px;fill:#ebf4ce;font-family:LeagueGothic">64% OF WEB DESIGNERS CONSIDER</text>

				<text
   transform="translate(244.9507,853.2305)"
   font-size="18"
   id="text279"
   style="font-size:18px;fill:#ebf4ce;font-family:LeagueGothic">THEMSELVES SELF-TAUGHT</text>

				<g
   id="g281">
					<g
   id="g283">
						<path
   d="m 288.536,781.442 c -7.41,-4.364 -14.82,-8.729 -22.229,-13.096 -4.238,-2.491 -8.476,-4.987 -12.713,-7.483 -3.251,-1.914 -2.378,-2.964 -2.378,-6.992 0,-4.028 -0.872,-5.076 2.378,-6.995 4.238,-2.502 8.476,-5.004 12.713,-7.506 7.41,-4.375 14.82,-8.75 22.229,-13.125 0,5.268 2.337,13.159 -2.585,15.964 -6.823,3.889 -13.646,7.776 -20.469,11.664 6.484,3.668 12.968,7.337 19.452,11.005 2.426,1.372 3.602,1.264 3.602,4.002 0,4.187 0,8.375 0,12.562 L 288.536,781.442 Z"
   id="path285"
   inkscape:connector-curvature="0"
   style="fill:#c5eaea" />
						<path
   d="m 321.934,718.935 c -3.695,14.128 -7.396,28.258 -11.096,42.385 -2.045,7.813 -4.091,15.626 -6.136,23.438 -1.417,5.411 -7.584,2.955 -12.645,2.955 3.723,-14.127 7.447,-28.254 11.17,-42.381 2.059,-7.813 4.118,-15.626 6.177,-23.438 1.421,-5.392 7.478,-2.959 12.53,-2.959 L 321.934,718.935 Z"
   id="path287"
   inkscape:connector-curvature="0"
   style="fill:#c5eaea" />
						<path
   d="m 325.124,726.245 c 7.41,4.354 14.82,8.706 22.229,13.06 4.238,2.489 8.479,4.979 12.717,7.473 3.083,1.812 2.378,2.422 2.378,6.252 0,3.175 1.091,5.734 -1.687,7.375 -4.002,2.359 -8.005,4.727 -12.008,7.09 -7.877,4.646 -15.754,9.302 -23.631,13.952 0,-5.269 -2.336,-13.16 2.583,-15.963 6.816,-3.888 13.634,-7.771 20.452,-11.652 -6.479,-3.672 -12.957,-7.344 -19.438,-11.016 -2.424,-1.374 -3.599,-1.27 -3.599,-4.007 0.004,-4.189 0.004,-8.376 0.004,-12.564 L 325.124,726.245 Z"
   id="path289"
   inkscape:connector-curvature="0"
   style="fill:#c5eaea" />
					</g>
					<g
   id="g291">
						<path
   d="m 262.599,749.777 c 3.488,-2.453 7.213,-4.396 11.053,-6.573 3.574,-2.025 6.571,-4.487 10.172,-5.979 0.282,-1.014 0.618,-1.981 1.028,-2.898 0.002,-1.027 -0.104,-2.147 -0.357,-3.396 -9.313,6.521 -23.597,12.796 -29.029,22.021 1.146,-0.422 2.27,-0.896 3.359,-1.459 C 260.06,750.847 261.323,750.294 262.599,749.777 Z"
   id="path293"
   inkscape:connector-curvature="0"
   style="fill:#d8efee" />
						<path
   d="m 296.609,785.691 c 1.562,-0.972 2.794,-2.034 3.74,-4.275 1.004,-2.382 1.871,-4.866 2.675,-7.343 1.916,-5.901 2.993,-12.075 4.829,-18 1.9,-6.132 3.223,-12.047 4.358,-18.409 0.896,-5.016 2.386,-9.813 3.716,-14.676 l -3.141,0 c -0.424,0.224 -0.813,0.501 -1.146,0.847 l -12.5,47.433 c 0.883,1.656 0.261,4.088 -1.283,4.864 l -2.45,9.298 c 0.297,0.037 0.597,0.086 0.899,0.166 C 296.409,785.623 296.507,785.661 296.609,785.691 Z"
   id="path295"
   inkscape:connector-curvature="0"
   style="fill:#d8efee" />
						<path
   d="m 331.876,739.698 c 3.642,1.318 7.204,2.412 10.216,4.938 3.1,2.604 7.588,3.313 10.954,5.587 0.899,0.607 1.669,1.357 2.418,2.123 8.896,-3.691 -22.87,-18.577 -28.78,-22.05 -0.201,1.688 -0.139,3.137 0.133,4.416 C 328.264,736.688 329.545,738.854 331.876,739.698 Z"
   id="path297"
   inkscape:connector-curvature="0"
   style="fill:#d8efee" />
					</g>
					<ellipse
   cx="304.66699"
   cy="794.35699"
   rx="28.333"
   ry="3.108"
   id="ellipse299"
   d="m 332.99999,794.35699 c 0,1.71651 -12.68511,3.108 -28.333,3.108 -15.64788,0 -28.333,-1.39149 -28.333,-3.108 0,-1.7165 12.68512,-3.108 28.333,-3.108 C 320.31488,791.24899 332.99999,792.64049 332.99999,794.35699 Z"
   sodipodi:cx="304.66699"
   sodipodi:cy="794.35699"
   sodipodi:rx="28.333"
   sodipodi:ry="3.108"
   style="fill:#96a362" />
					<path
   d="m 347.197,762.58 c -3.488,2.453 -7.213,4.396 -11.057,6.573 -3.57,2.021 -6.567,4.483 -10.172,5.979 -0.278,1.018 -0.618,1.985 -1.024,2.902 -0.002,1.023 0.104,2.146 0.354,3.393 9.313,-6.521 23.601,-12.796 29.029,-22.019 -1.146,0.422 -2.271,0.892 -3.359,1.459 C 349.736,761.511 348.473,762.063 347.197,762.58 Z"
   id="path301"
   inkscape:connector-curvature="0"
   style="fill:#b0e2de" />
					<path
   d="m 268.647,768.78 c 0.79,0.558 1.545,1.141 2.29,1.729 1.611,0.937 3.182,1.946 4.727,3.019 3.847,2.662 8.484,4.511 12.657,6.713 0.149,-1.52 0.084,-2.85 -0.163,-4.022 -1.45,-1.972 -2.732,-4.138 -5.063,-4.979 -3.642,-1.322 -7.204,-2.412 -10.216,-4.94 -3.096,-2.6 -7.588,-3.313 -10.954,-5.587 -0.899,-0.604 -1.669,-1.354 -2.418,-2.123 -1.312,0.545 -1.733,1.335 -1.49,2.295 C 261.44,763.69 265.01,766.213 268.647,768.78 Z"
   id="path303"
   inkscape:connector-curvature="0"
   style="fill:#b0e2de" />
				</g>
			</g>
		</g>
	</g>
	<g
   id="beer">
		<rect
   x="505.54501"
   y="1143"
   width="17"
   height="110"
   id="rect306"
   style="fill:#eab83d" />
		<polyline
   points="509.334,1190.133 497.023,1199.455 514.566,1210.415   "
   id="polyline308"
   style="fill:#eab83d" />
		<text
   transform="translate(558.6953,1206.0137)"
   font-size="28.2251"
   id="text310"
   style="font-size:28.22509956px;fill:#eab83d;font-family:LeagueGothic">3PM</text>

		<g
   id="beer-badge">
			<circle
   cx="313"
   cy="1190.5"
   r="130.5"
   id="circle313"
   d="m 443.5,1190.5 c 0,72.0732 -58.42684,130.5 -130.5,130.5 -72.07316,0 -130.5,-58.4268 -130.5,-130.5 C 182.5,1118.4268 240.92684,1060 313,1060 385.07316,1060 443.5,1118.4268 443.5,1190.5 Z"
   sodipodi:cx="313"
   sodipodi:cy="1190.5"
   sodipodi:rx="130.5"
   sodipodi:ry="130.5"
   style="fill:#eab83d" />
			<g
   id="beer-title">
				<text
   transform="translate(290.5708,1109.5059)"
   font-size="28.2251"
   id="text316"
   style="font-size:28.22509956px;fill:#ffffff;font-family:LeagueGothic">BEER</text>

			</g>
			<g
   id="beer-details">
				<rect
   x="217.89301"
   y="1236.4"
   width="187"
   height="68"
   id="rect319"
   style="fill:none" />
				<text
   transform="translate(236.0879,1249.6289)"
   font-size="18"
   id="text321"
   style="font-size:18px;fill:#ebf4ce;font-family:LeagueGothic">HEINEKEN IS THE #1 CHOICE OF</text>

				<text
   transform="translate(240.1099,1271.2305)"
   font-size="18"
   id="text323"
   style="font-size:18px;fill:#ebf4ce;font-family:LeagueGothic">BEER AMONG WEB DESIGNERS</text>

				<g
   id="g325">
					<path
   d="m 343.833,1207.97 c -0.03,5.247 -14.135,9.131 -32.275,9.43 -18.146,0.795 -32.181,-3.053 -32.481,-8.251 -0.212,-2.018 14.254,-4.268 32.236,-5.112 C 329.287,1203.77 343.896,1205.904 343.833,1207.97 Z"
   id="path327"
   inkscape:connector-curvature="0"
   style="fill:#d3a337" />
					<path
   d="m 342.244,1193.465 c -5.368,0.926 -10.684,1.548 -15.706,1.676 -15.42,0.487 -30.633,-3.306 -45.948,-4.436 0.149,7.226 0.36,14.701 -0.02,16.097 -0.703,2.498 16.399,6.187 22.833,6.116 6.396,1.495 32.346,-1.752 35.146,-4.561 2.969,-1.975 3.611,-3.951 3.385,-5.943 C 341.762,1200.898 342.072,1195.864 342.244,1193.465 Z"
   id="path329"
   inkscape:connector-curvature="0"
   style="fill:#f6eedb" />
					<path
   d="m 292.819,1204.019 c 6.647,1.459 13.382,2.382 20.14,2.192 7.422,-0.192 14.708,-1.433 21.9,-3.851 2.303,-0.764 4.703,-1.372 7.091,-2.043 -0.07,-1.971 0.192,-6.247 0.347,-8.403 -5.366,1.027 -10.686,1.786 -15.718,1.969 -15.465,0.706 -30.711,-3.622 -46.04,-4.737 0.082,3.951 0.181,7.969 0.192,11.04 C 284.712,1201.628 288.72,1203.114 292.819,1204.019 Z"
   id="path331"
   inkscape:connector-curvature="0"
   style="fill:#e2d6bc" />
					<path
   d="m 286.191,1193.579 c -0.012,-0.856 0.118,-1.642 0.355,-2.354 -1.982,-0.176 -3.969,-0.369 -5.955,-0.52 0.149,7.227 0.361,14.698 -0.021,16.097 -0.299,0.829 2.478,2.536 6.202,1.801 C 286.512,1203.719 286.271,1198.691 286.191,1193.579 Z"
   id="path333"
   inkscape:connector-curvature="0"
   style="fill:#e2d6bc" />
					<path
   d="m 341.935,1202.41 c -0.174,-1.521 0.136,-6.555 0.309,-8.945 -4.73,0.624 -9.417,1.008 -13.881,0.976 0.056,0.267 0.098,0.544 0.096,0.842 -0.012,4.449 -0.135,8.834 -0.233,13.138 4.96,1.208 9.211,0.327 10.278,-0.251 C 341.535,1206.463 342.155,1204.376 341.935,1202.41 Z"
   id="path335"
   inkscape:connector-curvature="0"
   style="fill:#e2d6bc" />
					<path
   d="m 359.635,1163.248 c -0.609,-4.047 -9.364,-8.189 -23.817,-9.218 0.203,2.016 0.369,4.032 0.489,6.053 5.581,0.463 14.565,2.348 14.565,5.435 0,3.781 1.364,14.291 0,17.063 -1.051,2.145 -11.033,2.412 -13.309,2.429 0.307,3.228 0.648,6.456 1.004,9.684 0.057,-0.782 0.097,-1.287 0.097,-1.287 0,0 2.572,-0.259 10.067,-2.027 7.499,-1.766 10.225,-9.33 10.908,-15.135 C 360.315,1170.443 360.315,1167.791 359.635,1163.248 Z"
   id="path337"
   inkscape:connector-curvature="0"
   style="fill:#e2d6bc" />
					<g
   id="g339">
						<path
   d="m 337.663,1185.968 c 3.509,-0.143 9.187,-0.607 10.651,-2.016 -3.41,0.896 -9.103,1.044 -10.753,1.052 C 337.593,1185.327 337.632,1185.648 337.663,1185.968 Z"
   id="path341"
   inkscape:connector-curvature="0"
   style="fill:#f6eedb" />
						<path
   d="m 359.635,1163.248 c -0.609,-4.047 -9.364,-8.189 -23.817,-9.218 0.042,0.408 0.061,0.82 0.1,1.231 13.025,1.293 20.862,5.191 21.434,9.011 0.681,4.543 0.681,7.195 0,12.995 -0.567,4.841 -2.573,10.896 -7.565,13.8 6.695,-2.201 9.202,-9.308 9.852,-14.827 C 360.315,1170.443 360.315,1167.791 359.635,1163.248 Z"
   id="path343"
   inkscape:connector-curvature="0"
   style="fill:#f6eedb" />
						<path
   d="m 338.503,1194.094 c 0.02,0.195 0.04,0.396 0.061,0.596 0.021,-0.236 0.031,-0.434 0.048,-0.613 C 338.571,1194.083 338.54,1194.088 338.503,1194.094 Z"
   id="path345"
   inkscape:connector-curvature="0"
   style="fill:#f6eedb" />
					</g>
					<path
   d="m 348.011,1187.395 c -2.193,0.915 -5.609,1.465 -10.228,1.638 0.114,1.196 0.239,2.395 0.37,3.594 1.538,-0.287 3.86,-0.768 7.177,-1.547 1.021,-0.24 1.914,-0.636 2.719,-1.127 C 348.024,1189.099 348.014,1188.246 348.011,1187.395 Z"
   id="path347"
   inkscape:connector-curvature="0"
   style="fill:#f6eedb" />
					<path
   d="m 354.309,1164.646 c -0.325,-2.161 -6.341,-5.673 -18.252,-6.987 0.043,0.523 0.084,1.043 0.123,1.559 4.924,0.617 14.69,2.467 14.69,7.417 0,1.035 0.111,2.651 0.24,4.524 0.098,1.418 0.182,2.738 0.248,3.979 0.465,3.343 0.479,6.674 0.496,10.003 1.616,-2.853 2.225,-6.124 2.444,-7.996 C 354.963,1171.485 354.965,1169.032 354.309,1164.646 Z"
   id="path349"
   inkscape:connector-curvature="0"
   style="fill:#f6eedb" />
					<path
   d="m 315.192,1194.54 c -0.002,-0.175 0.03,-0.33 0.054,-0.491 -3.526,-0.178 -7.056,-0.55 -10.577,-0.914 0.007,0.141 0.023,0.276 0.023,0.421 -0.027,5.174 0.116,10.301 0.282,15.436 2.317,0.642 6.182,1.032 10.174,-0.172 C 315.266,1204.08 315.271,1199.349 315.192,1194.54 Z"
   id="path351"
   inkscape:connector-curvature="0"
   style="fill:#e2d6bc" />
					<path
   d="m 341.44,1144.088 -2.886,0 c 0.086,1.626 0.142,3.247 0.152,4.866 0.027,6.401 -1.058,12.764 -0.771,18.979 0.511,11.059 0.518,20.841 0.545,31.418 0.683,-0.013 1.366,-0.024 2.05,-0.029 0.466,-0.056 0.936,-0.104 1.408,-0.146 0.073,-0.165 0.128,-0.34 0.179,-0.511 C 341.969,1180.17 341.959,1151.168 341.44,1144.088 Z"
   id="path353"
   inkscape:connector-curvature="0"
   style="fill:#d88430" />
					<g
   id="g355">
						<path
   d="m 279.991,1144.088 c 0.002,-0.028 0.785,21.916 0.411,29.564 -0.301,6.206 0.231,17.127 0.091,23.023 1.703,4.943 15.91,7.321 16.52,7.109 10.156,1.489 20.434,0.25 30.554,-1.203 4.327,-0.625 8.61,-1.653 12.828,-2.795 0.51,-0.189 1.024,-0.378 1.531,-0.562 0.079,-0.19 0.137,-0.378 0.19,-0.563 -0.229,-18.433 -0.352,-47.453 -0.96,-54.575 -20.388,10e-4 -40.777,0 -61.165,0 L 279.991,1144.088 Z"
   id="path357"
   inkscape:connector-curvature="0"
   style="fill:#ea9e42" />
						<path
   d="m 326.188,1201.304 c 13.106,-2.745 10.508,-15.276 10.655,-18.889 0.396,-12.505 0.512,-25.253 0.78,-38.327 1.281,0 2.563,0 3.843,0 -0.002,-0.026 -0.746,21.982 -0.36,29.65 0.313,6.224 -0.265,19.23 -0.114,25.114 -2.01,0.649 -4.067,1.34 -6.231,2.076 C 334.912,1199.374 326.15,1203.041 326.188,1201.304 Z"
   id="path359"
   inkscape:connector-curvature="0"
   style="fill:#d88430" />
					</g>
					<path
   d="m 300.025,1149.449 c -3.565,-0.051 -7.136,-0.189 -10.707,-0.381 -0.811,14.21 0.473,37.328 1.253,48.813 3.53,1.258 11.6,3.065 10.565,-10e-4 C 300.369,1195.62 300.55,1153.898 300.025,1149.449 Z"
   id="path361"
   inkscape:connector-curvature="0"
   style="fill:#eab96c" />
					<path
   d="m 321.397,1144.851 c -2.303,0.33 -4.614,0.61 -6.925,0.807 -1.025,16.326 0.754,41.462 0.869,52.968 2.301,0.47 4.715,0.478 6.975,-0.035 C 322.927,1192.022 321.895,1148.625 321.397,1144.851 Z"
   id="path363"
   inkscape:connector-curvature="0"
   style="fill:#eab96c" />
					<path
   d="m 319.179,1146.913 c 6.869,-0.574 20.809,-0.928 21.147,2.122 0.438,3.677 4.662,5.491 4.86,2.376 0.104,-3.576 3.991,-11.029 -11.778,-16.664 -16.126,-4.192 -13.373,-2.662 -22.129,-3.22 -8.758,0.205 -4.633,-8.947 -21.733,-1.534 -16.742,9.102 -17.22,18.756 -9.534,19.82 7.907,0.316 13.053,3.349 19.766,3.305 C 306.513,1152.967 313.329,1147.313 319.179,1146.913 Z"
   id="path365"
   inkscape:connector-curvature="0"
   style="fill:#f6eedb" />
					<path
   d="m 341.412,1148.995 c -0.418,-1.095 -0.766,-4.057 -2.047,-5.321 -3.587,-3.646 -9.421,-5.413 -14.45,-5.82 -7.404,-0.987 -14.54,0.521 -21.87,2.949 -6.434,2.22 -12.882,3.522 -19.021,1.438 -2.756,-0.878 -4.805,-2.527 -6.021,-4.467 -4.527,6.688 -3.242,10.604 2.011,11.354 7.917,-0.068 13.077,3.382 19.802,3.312 6.748,-0.236 13.568,-6.916 19.398,-7.052 6.869,-0.469 20.662,0.763 20.978,3.396 0.174,1.276 1.002,2.449 1.914,2.901 C 341.912,1150.827 341.765,1149.92 341.412,1148.995 Z"
   id="path367"
   inkscape:connector-curvature="0"
   style="fill:#e2d6bc" />
				</g>
			</g>
		</g>
	</g>
</g>
</svg>